<?xml version="1.0" encoding="UTF-8"?>
<svg width="550px" height="469px" viewBox="0 0 550 469" version="1.1" xmlns="http://www.w3.org/2000/svg" xmlns:xlink="http://www.w3.org/1999/xlink">
    <title>Healthcare</title>
    <defs>
        <filter x="-30.9%" y="-25.4%" width="148.6%" height="159.7%" filterUnits="objectBoundingBox" id="filter-1">
            <feOffset dx="0" dy="10" in="SourceAlpha" result="shadowOffsetOuter1"></feOffset>
            <feGaussianBlur stdDeviation="15" in="shadowOffsetOuter1" result="shadowBlurOuter1"></feGaussianBlur>
            <feColorMatrix values="0 0 0 0 0   0 0 0 0 0   0 0 0 0 0  0 0 0 0.1 0" type="matrix" in="shadowBlurOuter1" result="shadowMatrixOuter1"></feColorMatrix>
            <feMerge>
                <feMergeNode in="shadowMatrixOuter1"></feMergeNode>
                <feMergeNode in="SourceGraphic"></feMergeNode>
            </feMerge>
        </filter>
        <filter x="-28.5%" y="-21.7%" width="157.0%" height="143.4%" filterUnits="objectBoundingBox" id="filter-2">
            <feOffset dx="0" dy="10" in="SourceAlpha" result="shadowOffsetOuter1"></feOffset>
            <feGaussianBlur stdDeviation="15" in="shadowOffsetOuter1" result="shadowBlurOuter1"></feGaussianBlur>
            <feColorMatrix values="0 0 0 0 0   0 0 0 0 0   0 0 0 0 0  0 0 0 0.1 0" type="matrix" in="shadowBlurOuter1" result="shadowMatrixOuter1"></feColorMatrix>
            <feMerge>
                <feMergeNode in="shadowMatrixOuter1"></feMergeNode>
                <feMergeNode in="SourceGraphic"></feMergeNode>
            </feMerge>
        </filter>
    </defs>
    <g id="Healthcare" stroke="none" stroke-width="1" fill="none" fill-rule="evenodd">
        <path d="M550,372 C550,220.123282 426.87791,97 275.002662,97 C123.12209,97 0,220.123282 0,372 L550,372 Z" id="Fill-13" fill="#8FD6B0"></path>
        <g id="Group" filter="url(#filter-1)" transform="translate(61.000000, 43.000000)">
            <g id="Group-9" transform="translate(164.000000, 0.000000)">
                <rect id="Rectangle" fill="#FFFFFF" x="0" y="0" width="270" height="355" rx="3"></rect>
                <g id="Group-3" transform="translate(23.000000, 30.000000)">
                    <g id="Group-2" transform="translate(0.000000, 27.000000)">
                        <rect id="Rectangle" fill="#EDF2F5" x="0" y="14.2105263" width="107.171053" height="20" rx="3"></rect>
                        <rect id="Rectangle" fill="#EDF2F5" x="0" y="58.6184211" width="225" height="20" rx="3"></rect>
                        <text id="First-Name*" font-family="HelveticaNeue-Medium, Helvetica Neue" font-size="8" font-weight="400" fill="#162731">
                            <tspan x="0" y="8">First Name*</tspan>
                        </text>
                        <text id="Last-Name*" font-family="HelveticaNeue-Medium, Helvetica Neue" font-size="8" font-weight="400" fill="#162731">
                            <tspan x="118" y="8">Last Name*</tspan>
                        </text>
                        <text id="Email-Address*" font-family="HelveticaNeue-Medium, Helvetica Neue" font-size="8" font-weight="400" fill="#162731">
                            <tspan x="0" y="52">Email Address*</tspan>
                        </text>
                        <text id="Date-of-Birth*" font-family="HelveticaNeue-Medium, Helvetica Neue" font-size="8" font-weight="400" fill="#162731">
                            <tspan x="0" y="97">Date of Birth*</tspan>
                        </text>
                        <rect id="Rectangle" fill="#EDF2F5" x="0" y="103.657895" width="54" height="20" rx="3"></rect>
                        <rect id="Rectangle-Copy-2" fill="#EDF2F5" x="64" y="104" width="54" height="20" rx="3"></rect>
                        <rect id="Rectangle-Copy-3" fill="#EDF2F5" x="128" y="104" width="96" height="20" rx="3"></rect>
                        <text id="Reason-for-Visit?*" font-family="HelveticaNeue-Medium, Helvetica Neue" font-size="8" font-weight="400" fill="#162731">
                            <tspan x="0" y="142">Reason for Visit?*</tspan>
                        </text>
                        <rect id="Rectangle-Copy" fill="#EDF2F5" x="0" y="148.657895" width="225" height="20" rx="3"></rect>
                        <text id="Medical-History*" font-family="HelveticaNeue-Medium, Helvetica Neue" font-size="8" font-weight="400" fill="#162731">
                            <tspan x="0" y="186">Medical History*</tspan>
                        </text>
                        <rect id="Rectangle-Copy-4" fill="#EDF2F5" x="0" y="192.657895" width="225" height="30" rx="3"></rect>
                        <g id="Group-4" transform="translate(0.000000, 238.000000)">
                            <rect id="Rectangle-Copy-5" fill="#669CD1" x="0" y="0" width="225" height="30" rx="3"></rect>
                            <text id="Check-In" font-family="HelveticaNeue-Bold, Helvetica Neue" font-size="10" font-weight="bold" fill="#FFFFFF">
                                <tspan x="91" y="18">Check-In</tspan>
                            </text>
                        </g>
                        <rect id="Rectangle" fill="#EDF2F5" x="117" y="14.2105263" width="107.171053" height="20" rx="3"></rect>
                    </g>
                    <g id="Group-2" transform="translate(64.000000, 0.000000)">
                        <path d="M15.1819962,0.273882462 L17.5867284,0.273882462 L21.7872022,11.4480901 L19.4605457,11.4480901 L18.5392522,8.77938967 L14.2294724,8.77938967 L13.3081789,11.4480901 L10.9815224,11.4480901 L15.1819962,0.273882462 Z M17.8521858,6.8441917 L16.8528166,4.05063979 L16.4468229,2.69287993 L16.3219017,2.69287993 L15.915908,4.05063979 L14.9165387,6.8441917 L17.8521858,6.8441917 Z M21.0725797,3.80093683 L23.3992362,3.80093683 L25.3042838,8.67014462 L25.4135898,8.67014462 L27.3342525,3.80093683 L29.6452939,3.80093683 L26.3504984,11.4480901 L24.3361448,11.4480901 L21.0725797,3.80093683 Z M31.5384005,2.69287993 C31.3614279,2.69287993 31.1922656,2.65906632 31.0309083,2.5914381 C30.869551,2.52380987 30.7290161,2.4301722 30.6092994,2.31052226 C30.4895827,2.19087233 30.3958927,2.05301686 30.3282268,1.89695173 C30.2605608,1.74088659 30.2267283,1.56921752 30.2267283,1.38193936 C30.2267283,1.19466121 30.2605608,1.02299213 30.3282268,0.866927001 C30.3958927,0.710861869 30.4895827,0.573006402 30.6092994,0.453356467 C30.7290161,0.333706532 30.869551,0.240068857 31.0309083,0.172440633 C31.1922656,0.104812409 31.3614279,0.0709988038 31.5384005,0.0709988038 C31.9027556,0.0709988038 32.2150554,0.198450084 32.4753091,0.453356467 C32.7355628,0.708262851 32.8656877,1.01778739 32.8656877,1.38193936 C32.8656877,1.74609134 32.7355628,2.05561588 32.4753091,2.31052226 C32.2150554,2.56542865 31.9027556,2.69287993 31.5384005,2.69287993 Z M30.5234161,11.4480901 L30.5234161,3.80093683 L32.569,3.80093683 L32.569,11.4480901 L30.5234161,11.4480901 Z M37.8037474,3.55123386 C38.3971259,3.55123386 38.941048,3.65267468 39.43553,3.85555935 C39.930012,4.05844402 40.3568217,4.33935705 40.7159718,4.69830685 C41.0751219,5.05725666 41.3561917,5.48642934 41.5591896,5.98583776 C41.7621875,6.48524619 41.8636849,7.03146596 41.8636849,7.62451346 C41.8636849,8.21756097 41.7621875,8.76378074 41.5591896,9.26318916 C41.3561917,9.76259759 41.0751219,10.1917703 40.7159718,10.5507201 C40.3568217,10.9096699 39.930012,11.1905829 39.43553,11.3934676 C38.941048,11.5963522 38.3971259,11.6977931 37.8037474,11.6977931 C37.210369,11.6977931 36.6664469,11.5963522 36.1719649,11.3934676 C35.6774828,11.1905829 35.2506731,10.9096699 34.891523,10.5507201 C34.5323729,10.1917703 34.2513031,9.76259759 34.0483052,9.26318916 C33.8453074,8.76378074 33.7438099,8.21756097 33.7438099,7.62451346 C33.7438099,7.03146596 33.8453074,6.48524619 34.0483052,5.98583776 C34.2513031,5.48642934 34.5323729,5.05725666 34.891523,4.69830685 C35.2506731,4.33935705 35.6774828,4.05844402 36.1719649,3.85555935 C36.6664469,3.65267468 37.210369,3.55123386 37.8037474,3.55123386 Z M37.8037474,9.8094144 C38.0640011,9.8094144 38.3164434,9.75999451 38.5610819,9.66115326 C38.8057204,9.56231201 39.0217277,9.41925445 39.2091104,9.23197629 C39.3964931,9.04469813 39.5448355,8.81580604 39.654142,8.54529314 C39.7634486,8.27478025 39.818101,7.96785676 39.818101,7.62451346 C39.818101,7.28117017 39.7634486,6.97424668 39.654142,6.70373378 C39.5448355,6.43322089 39.3964931,6.20432879 39.2091104,6.01705063 C39.0217277,5.82977247 38.8057204,5.68671491 38.5610819,5.58787366 C38.3164434,5.48903241 38.0640011,5.43961253 37.8037474,5.43961253 C37.5330836,5.43961253 37.2780388,5.48903241 37.0386054,5.58787366 C36.799172,5.68671491 36.5857671,5.82977247 36.3983845,6.01705063 C36.2110018,6.20432879 36.0626594,6.43322089 35.9533528,6.70373378 C35.8440463,6.97424668 35.7893938,7.28117017 35.7893938,7.62451346 C35.7893938,7.96785676 35.8440463,8.27478025 35.9533528,8.54529314 C36.0626594,8.81580604 36.2110018,9.04469813 36.3983845,9.23197629 C36.5857671,9.41925445 36.799172,9.56231201 37.0386054,9.66115326 C37.2780388,9.75999451 37.5330836,9.8094144 37.8037474,9.8094144 Z M44.7561607,4.79974868 L44.8810819,4.79974868 C45.1205153,4.41478802 45.4432251,4.11046558 45.8492208,3.88677222 C46.2552166,3.66307886 46.7184613,3.55123386 47.2389687,3.55123386 C47.7178355,3.55123386 48.1394402,3.62926526 48.5037954,3.78533039 C48.8681505,3.94139553 49.1674378,4.16248448 49.4016661,4.44860389 C49.6358945,4.7347233 49.8128643,5.07806144 49.932581,5.47862862 C50.0522978,5.87919579 50.1121552,6.32397475 50.1121552,6.81297883 L50.1121552,11.4480901 L48.0665713,11.4480901 L48.0665713,7.06268179 C48.0665713,6.51125166 47.9442539,6.10288735 47.6996154,5.83757663 C47.4549769,5.5722659 47.0984347,5.43961253 46.629978,5.43961253 C46.348904,5.43961253 46.1016667,5.4994366 45.8882587,5.61908653 C45.6748507,5.73873647 45.4926758,5.90000135 45.3417287,6.10288603 C45.1907815,6.3057707 45.0762716,6.54506698 44.9981955,6.82078205 C44.9201194,7.09649712 44.8810819,7.39041537 44.8810819,7.70254564 L44.8810819,11.4480901 L42.835498,11.4480901 L42.835498,3.80093683 L44.7561607,3.80093683 L44.7561607,4.79974868 Z M51.8647255,0.273882462 L53.97277,0.273882462 L53.97277,4.73732294 L58.6729284,4.73732294 L58.6729284,0.273882462 L60.7809728,0.273882462 L60.7809728,11.4480901 L58.6729284,11.4480901 L58.6729284,6.73494665 L53.97277,6.73494665 L53.97277,11.4480901 L51.8647255,11.4480901 L51.8647255,0.273882462 Z M69.8414306,9.60653074 C69.4874856,10.2307913 69.0112285,10.7353943 68.4126449,11.120355 C67.8140614,11.5053156 67.0827595,11.6977931 66.2187172,11.6977931 C65.6357489,11.6977931 65.0970318,11.5963522 64.6025497,11.3934676 C64.1080677,11.1905829 63.6786555,10.9070688 63.3143004,10.5429169 C62.9499452,10.1787649 62.6662729,9.7495922 62.463275,9.25538595 C62.2602771,8.76117969 62.1587797,8.21756097 62.1587797,7.62451346 C62.1587797,7.07308333 62.2576746,6.55027297 62.4554674,6.05606672 C62.6532602,5.56186047 62.929125,5.13008674 63.2830701,4.7607326 C63.6370151,4.39137845 64.0560173,4.09746019 64.5400892,3.878969 C65.0241611,3.66047782 65.5576732,3.55123386 66.1406415,3.55123386 C66.7548402,3.55123386 67.3013648,3.65267468 67.7802316,3.85555935 C68.2590984,4.05844402 68.6598831,4.33935705 68.9825977,4.69830685 C69.3053123,5.05725666 69.5499471,5.48122724 69.7165095,5.97023133 C69.8830718,6.45923541 69.9663518,6.9898489 69.9663518,7.56208772 L69.9663518,7.74936494 C69.9559416,7.811791 69.9507366,7.86901402 69.9507366,7.92103573 C69.9403265,7.97305744 69.9351215,8.03028047 69.9351215,8.09270652 L64.1731333,8.09270652 C64.2147739,8.40483679 64.3006563,8.67274458 64.4307832,8.89643794 C64.56091,9.12013129 64.7222649,9.30740664 64.9148526,9.4582696 C65.1074404,9.60913257 65.3182427,9.71837652 65.547266,9.78600474 C65.7762892,9.85363297 66.0105141,9.88744657 66.2499475,9.88744657 C66.7184041,9.88744657 67.1061763,9.78080367 67.4132757,9.56751465 C67.7203751,9.35422564 67.9624074,9.08631784 68.1393799,8.76378324 L69.8414306,9.60653074 Z M67.9832285,6.64130804 C67.9728183,6.50605159 67.9285759,6.3551909 67.8504997,6.18872142 C67.7724236,6.02225195 67.6579137,5.86618915 67.5069666,5.72052836 C67.3560194,5.57486757 67.1686396,5.45521943 66.9448214,5.36158035 C66.7210032,5.26794127 66.4529459,5.22112244 66.1406415,5.22112244 C65.7034152,5.22112244 65.3182455,5.34597267 64.9851208,5.59567688 C64.651996,5.84538109 64.4177712,6.19392133 64.2824393,6.64130804 L67.9832285,6.64130804 Z M75.8881656,10.6365555 L75.7632444,10.6365555 C75.523811,10.927877 75.2349337,11.1775775 74.8966039,11.3856644 C74.5582741,11.5937512 74.1236569,11.6977931 73.5927394,11.6977931 C73.1971538,11.6977931 72.8249965,11.6327669 72.4762566,11.5027126 C72.1275166,11.3726583 71.8230243,11.1931861 71.5627706,10.9642906 C71.3025169,10.7353951 71.0995221,10.4596841 70.95378,10.1371495 C70.8080379,9.81461493 70.735168,9.4608726 70.735168,9.07591194 C70.735168,8.68054694 70.8132429,8.32420356 70.9693952,8.00687113 C71.1255474,7.68953869 71.3441572,7.4164288 71.6252312,7.18753328 C71.9063052,6.95863775 72.2368225,6.78436763 72.6167929,6.6647177 C72.9967633,6.54506776 73.4105605,6.48524369 73.8581968,6.48524369 C74.3578839,6.48524369 74.7690786,6.52425939 75.0917932,6.60229195 C75.4145078,6.68032452 75.6799626,6.76095696 75.8881656,6.8441917 L75.8881656,6.61009517 C75.8881656,6.20432583 75.7268107,5.86879082 75.4040961,5.6034801 C75.0813815,5.33816937 74.6805968,5.205516 74.20173,5.205516 C73.4938399,5.205516 72.8952654,5.5020353 72.4059884,6.09508281 L70.9225497,5.08066452 C71.7345413,4.06103898 72.8432054,3.55123386 74.2485754,3.55123386 C75.4353323,3.55123386 76.3410016,3.82954584 76.9656105,4.38617815 C77.5902194,4.94281046 77.9025192,5.76734221 77.9025192,6.85979814 L77.9025192,11.4480901 L75.8881656,11.4480901 L75.8881656,10.6365555 Z M75.8881656,8.34240948 C75.6487322,8.22796172 75.4014949,8.13692509 75.1464462,8.06929687 C74.8913976,8.00166864 74.6129303,7.96785504 74.311036,7.96785504 C73.8217591,7.96785504 73.4443968,8.07449795 73.1789381,8.28778696 C72.9134793,8.50107598 72.7807519,8.76378168 72.7807519,9.07591194 C72.7807519,9.38804221 72.9082743,9.63774267 73.1633229,9.82502083 C73.4183715,10.012299 73.7124538,10.1059367 74.0455786,10.1059367 C74.3162424,10.1059367 74.5660822,10.0565168 74.7951055,9.95767553 C75.0241287,9.85883428 75.2193161,9.72878195 75.3806734,9.56751465 C75.5420307,9.40624735 75.6669506,9.218972 75.7554369,9.00568298 C75.8439231,8.79239397 75.8881656,8.57130501 75.8881656,8.34240948 Z M79.3427866,11.4480901 L79.3427866,0.273882462 L81.3883705,0.273882462 L81.3883705,11.4480901 L79.3427866,11.4480901 Z M83.8748526,5.54885758 L82.5319502,5.54885758 L82.5319502,3.80093683 L83.8748526,3.80093683 L83.8748526,1.45997154 L85.9204365,1.45997154 L85.9204365,3.80093683 L87.7942538,3.80093683 L87.7942538,5.54885758 L85.9204365,5.54885758 L85.9204365,8.51408027 C85.9204365,8.69095409 85.9386539,8.85482002 85.9750895,9.00568298 C86.011525,9.15654594 86.0817924,9.28399722 86.1858939,9.38804065 C86.331636,9.55451012 86.5398358,9.63774361 86.8104997,9.63774361 C86.9874722,9.63774361 87.1280071,9.61953628 87.2321086,9.58312109 C87.33621,9.54670589 87.435105,9.497286 87.5287963,9.43485995 L88.1065566,11.2296 C87.8671232,11.3440478 87.6094759,11.4298823 87.333607,11.4871062 C87.0577381,11.5443301 86.7532458,11.5729416 86.4201211,11.5729416 C86.0349456,11.5729416 85.6888134,11.5131175 85.381714,11.3934676 C85.0746146,11.2738176 84.8169673,11.1099517 84.6087643,10.9018649 C84.1194874,10.4336695 83.8748526,9.76780155 83.8748526,8.90424115 L83.8748526,5.54885758 Z M89.1096,0.273882462 L91.1551839,0.273882462 L91.1551839,3.41077595 L91.0302628,4.79974868 L91.1551839,4.79974868 C91.373797,4.43559671 91.6886993,4.13647636 92.0999001,3.90237866 C92.511101,3.66828096 92.9717431,3.55123386 93.4818404,3.55123386 C94.4708045,3.55123386 95.2021064,3.84255108 95.6757682,4.42519424 C96.1494299,5.0078374 96.3862572,5.80375764 96.3862572,6.81297883 L96.3862572,11.4480901 L94.3406733,11.4480901 L94.3406733,7.06268179 C94.3406733,6.53206034 94.2157534,6.12889813 93.9659099,5.85318306 C93.7160663,5.57746799 93.3673316,5.43961253 92.9196952,5.43961253 C92.6386212,5.43961253 92.3887814,5.4994366 92.1701683,5.61908653 C91.9515552,5.73873647 91.7667778,5.9026024 91.6158307,6.11068924 C91.4648835,6.31877609 91.3503736,6.56067342 91.2722975,6.83638848 C91.1942214,7.11210355 91.1551839,7.40602181 91.1551839,7.71815207 L91.1551839,11.4480901 L89.1096,11.4480901 L89.1096,0.273882462 Z" id="AvionHealth" fill="#669CD1"></path>
                        <g id="Group" stroke="#669CD1" stroke-linecap="round" stroke-linejoin="round" stroke-width="0.553656869">
                            <path d="M0,6.09022556 C0,3.2759877 2.42360051,0 11.6332824,0 C10.4212052,1.21084757 9.37143994,2.67582365 8.86345328,4.98291183 C8.43689959,6.92071087 7.70954245,9.96582365 4.43172664,9.96582365 C1.63863092,9.96582365 0,8.28159945 0,6.09022556 L0,6.09022556 Z" id="Stroke-1"></path>
                            <path d="M0,11.6267943 C0,10.1042379 2.72384998,4.9369583 7.20155579,2.76828435" id="Stroke-3"></path>
                        </g>
                    </g>
                </g>
            </g>
            <g id="Direct-Deposit-Enrollment" filter="url(#filter-2)" transform="translate(0.000000, 35.000000)">
                <rect id="Rectangle" fill="#FFFFFF" x="0" y="0" width="270" height="355" rx="3"></rect>
                <g id="Group-2" transform="translate(0.000000, 50.000000)">
                    <g id="Group-7" transform="translate(23.000000, 28.000000)">
                        <rect id="Rectangle" fill="#EDF2F5" x="2.84217094e-14" y="14.2105263" width="107.171053" height="20" rx="3"></rect>
                        <text id="First-Name*" font-family="HelveticaNeue-Medium, Helvetica Neue" font-size="8" font-weight="400" fill="#162731">
                            <tspan x="0" y="8">First Name*</tspan>
                        </text>
                        <text id="Last-Name*" font-family="HelveticaNeue-Medium, Helvetica Neue" font-size="8" font-weight="400" fill="#162731">
                            <tspan x="118" y="8">Last Name*</tspan>
                        </text>
                        <rect id="Rectangle" fill="#EDF2F5" x="117" y="14.2105263" width="107.171053" height="20" rx="3"></rect>
                    </g>
                    <g id="Group-6">
                        <rect id="Rectangle" fill="#EDF2F5" x="23" y="88.6184211" width="225" height="20" rx="3"></rect>
                        <text id="Email-Address*" font-family="HelveticaNeue-Medium, Helvetica Neue" font-size="8" font-weight="400" fill="#162731">
                            <tspan x="23" y="82">Email Address*</tspan>
                        </text>
                        <text id="Direct-Deposit-Enrol" font-family="HelveticaNeue-Bold, Helvetica Neue" font-size="10" font-weight="bold" fill="#162731">
                            <tspan x="73.45" y="10">Direct Deposit Enrollment</tspan>
                        </text>
                    </g>
                    <g id="Group-8" transform="translate(23.000000, 212.000000)">
                        <text id="Start-Date" font-family="HelveticaNeue-Medium, Helvetica Neue" font-size="8" font-weight="400" fill="#162731">
                            <tspan x="0" y="8">Start Date</tspan>
                        </text>
                        <g id="Date-1" transform="translate(0.000000, 14.657895)">
                            <rect id="Rectangle" fill="#EDF2F5" x="0" y="0" width="36" height="20" rx="3"></rect>
                            <g id="Picker" transform="translate(28.000000, 6.342105)" fill="#15232B">
                                <path d="M2.14142136,0.141421356 L3.65857864,1.65857864 C3.7366835,1.7366835 3.7366835,1.8633165 3.65857864,1.94142136 C3.62107137,1.97892863 3.57020059,2 3.51715729,2 L0.482842712,2 C0.372385763,2 0.282842712,1.91045695 0.282842712,1.8 C0.282842712,1.7469567 0.303914081,1.69608592 0.341421356,1.65857864 L1.85857864,0.141421356 C1.9366835,0.0633164979 2.0633165,0.0633164979 2.14142136,0.141421356 Z" id="Triangle"></path>
                                <path d="M2.14142136,4.14142136 L3.65857864,5.65857864 C3.7366835,5.7366835 3.7366835,5.8633165 3.65857864,5.94142136 C3.62107137,5.97892863 3.57020059,6 3.51715729,6 L0.482842712,6 C0.372385763,6 0.282842712,5.91045695 0.282842712,5.8 C0.282842712,5.7469567 0.303914081,5.69608592 0.341421356,5.65857864 L1.85857864,4.14142136 C1.9366835,4.0633165 2.0633165,4.0633165 2.14142136,4.14142136 Z" id="Triangle-Copy" transform="translate(2.000000, 5.000000) scale(1, -1) translate(-2.000000, -5.000000) "></path>
                            </g>
                        </g>
                        <g id="Date-1-Copy" transform="translate(46.000000, 14.657895)">
                            <rect id="Rectangle" fill="#EDF2F5" x="0" y="0" width="36" height="20" rx="3"></rect>
                            <g id="Picker" transform="translate(28.000000, 6.342105)" fill="#15232B">
                                <path d="M2.14142136,0.141421356 L3.65857864,1.65857864 C3.7366835,1.7366835 3.7366835,1.8633165 3.65857864,1.94142136 C3.62107137,1.97892863 3.57020059,2 3.51715729,2 L0.482842712,2 C0.372385763,2 0.282842712,1.91045695 0.282842712,1.8 C0.282842712,1.7469567 0.303914081,1.69608592 0.341421356,1.65857864 L1.85857864,0.141421356 C1.9366835,0.0633164979 2.0633165,0.0633164979 2.14142136,0.141421356 Z" id="Triangle"></path>
                                <path d="M2.14142136,4.14142136 L3.65857864,5.65857864 C3.7366835,5.7366835 3.7366835,5.8633165 3.65857864,5.94142136 C3.62107137,5.97892863 3.57020059,6 3.51715729,6 L0.482842712,6 C0.372385763,6 0.282842712,5.91045695 0.282842712,5.8 C0.282842712,5.7469567 0.303914081,5.69608592 0.341421356,5.65857864 L1.85857864,4.14142136 C1.9366835,4.0633165 2.0633165,4.0633165 2.14142136,4.14142136 Z" id="Triangle-Copy" transform="translate(2.000000, 5.000000) scale(1, -1) translate(-2.000000, -5.000000) "></path>
                            </g>
                        </g>
                        <g id="Date-1-Copy-2" transform="translate(92.000000, 14.657895)">
                            <rect id="Rectangle" fill="#EDF2F5" x="0" y="0" width="36" height="20" rx="3"></rect>
                            <g id="Picker" transform="translate(28.000000, 6.342105)" fill="#15232B">
                                <path d="M2.14142136,0.141421356 L3.65857864,1.65857864 C3.7366835,1.7366835 3.7366835,1.8633165 3.65857864,1.94142136 C3.62107137,1.97892863 3.57020059,2 3.51715729,2 L0.482842712,2 C0.372385763,2 0.282842712,1.91045695 0.282842712,1.8 C0.282842712,1.7469567 0.303914081,1.69608592 0.341421356,1.65857864 L1.85857864,0.141421356 C1.9366835,0.0633164979 2.0633165,0.0633164979 2.14142136,0.141421356 Z" id="Triangle"></path>
                                <path d="M2.14142136,4.14142136 L3.65857864,5.65857864 C3.7366835,5.7366835 3.7366835,5.8633165 3.65857864,5.94142136 C3.62107137,5.97892863 3.57020059,6 3.51715729,6 L0.482842712,6 C0.372385763,6 0.282842712,5.91045695 0.282842712,5.8 C0.282842712,5.7469567 0.303914081,5.69608592 0.341421356,5.65857864 L1.85857864,4.14142136 C1.9366835,4.0633165 2.0633165,4.0633165 2.14142136,4.14142136 Z" id="Triangle-Copy" transform="translate(2.000000, 5.000000) scale(1, -1) translate(-2.000000, -5.000000) "></path>
                            </g>
                        </g>
                        <path d="M138.781244,19 C138.597156,19 138.447911,19.1459891 138.447911,19.3260869 L138.447911,20.5794779 C138.061389,20.7151735 137.781244,21.0777822 137.781244,21.5 C137.781244,22.0364124 138.232922,22.4782601 138.781244,22.4782601 C139.329578,22.4782601 139.781244,22.0364124 139.781244,21.5 C139.781244,21.0782387 139.500456,20.7155214 139.114578,20.5794779 L139.114578,19.3260869 C139.114578,19.1459891 138.965333,19 138.781244,19 Z M143.225689,19 C143.0416,19 142.892356,19.1459891 142.892356,19.3260869 L142.892356,20.5794779 C142.505833,20.7151735 142.225689,21.0777822 142.225689,21.5 C142.225689,22.0364124 142.677367,22.4782601 143.225689,22.4782601 C143.774022,22.4782601 144.225689,22.0364124 144.225689,21.5 C144.225689,21.0782387 143.9449,20.7155214 143.559022,20.5794779 L143.559022,19.3260869 C143.559022,19.1459891 143.409778,19 143.225689,19 Z M137.225689,19.6521457 C136.552489,19.6521457 136,20.1926628 136,20.851217 L136,27.8009459 C136,28.459511 136.5525,29 137.225689,29 L144.774311,29 C145.4475,29 146,28.459511 146,27.8009459 L146,20.851217 C146,20.1926628 145.447489,19.6521457 144.774311,19.6521457 L144.111111,19.6521457 C143.935011,19.6497825 143.770833,19.8059672 143.770833,19.9782607 C143.770833,20.1505541 143.935011,20.3067823 144.111111,20.3043475 L144.774311,20.3043475 C145.089056,20.3043475 145.333333,20.5432931 145.333333,20.851217 L145.333333,22.6956514 L136.666667,22.6956514 L136.666667,20.851217 C136.666667,20.5432931 136.910933,20.3043475 137.225689,20.3043475 L137.888889,20.3043475 C138.064989,20.3067388 138.225689,20.1505541 138.225689,19.9782607 C138.225689,19.8059672 138.064989,19.649739 137.888889,19.6521457 L137.225689,19.6521457 Z M139.666667,19.6521738 C139.482567,19.6521738 139.333333,19.7981629 139.333333,19.9782607 C139.333333,20.1583476 139.482567,20.3043475 139.666667,20.3043475 L142.333333,20.3043475 C142.517433,20.3043475 142.666667,20.1583476 142.666667,19.9782607 C142.666667,19.7981629 142.517433,19.6521738 142.333333,19.6521738 L139.666667,19.6521738 Z M138.781244,21.1739126 C138.969289,21.1739126 139.114578,21.316043 139.114578,21.4999995 C139.114578,21.6839559 138.969289,21.8260863 138.781244,21.8260863 C138.593211,21.8260863 138.447911,21.6839559 138.447911,21.4999995 C138.447911,21.316043 138.593211,21.1739126 138.781244,21.1739126 Z M143.225689,21.1739126 C143.413733,21.1739126 143.559022,21.316043 143.559022,21.4999995 C143.559022,21.6839559 143.413733,21.8260863 143.225689,21.8260863 C143.037656,21.8260863 142.892356,21.6839559 142.892356,21.4999995 C142.892356,21.316043 143.037656,21.1739126 143.225689,21.1739126 Z M136.666667,23.3478251 L145.333333,23.3478251 L145.333333,27.8009459 C145.333333,28.1088698 145.089056,28.3478251 144.774311,28.3478251 L137.225689,28.3478251 C136.910922,28.3478251 136.666667,28.1088698 136.666667,27.8009459 L136.666667,23.3478251 Z" id="Shape" fill="#000000" fill-rule="nonzero"></path>
                    </g>
                    <g id="Group-5" transform="translate(23.000000, 166.000000)">
                        <text id="Routing-Number" font-family="HelveticaNeue-Medium, Helvetica Neue" font-size="8" font-weight="400" fill="#162731">
                            <tspan x="0" y="8">Routing Number</tspan>
                        </text>
                        <rect id="Rectangle-Copy" fill="#EDF2F5" x="0" y="14.6578947" width="225" height="20" rx="3"></rect>
                    </g>
                    <g id="Group-5-Copy" transform="translate(23.000000, 120.000000)">
                        <text id="Account-Number" font-family="HelveticaNeue-Medium, Helvetica Neue" font-size="8" font-weight="400" fill="#162731">
                            <tspan x="0" y="8">Account Number</tspan>
                        </text>
                        <rect id="Rectangle-Copy" fill="#EDF2F5" x="0" y="14.6578947" width="225" height="20" rx="3"></rect>
                    </g>
                    <g id="Group-4" transform="translate(23.000000, 258.000000)">
                        <rect id="Rectangle-Copy-5" fill="#E8C259" x="0" y="0" width="225" height="30" rx="3"></rect>
                        <text id="Continue-to-Signatur" font-family="HelveticaNeue-Bold, Helvetica Neue" font-size="10" font-weight="bold" fill="#15232B">
                            <tspan x="60.365" y="18">Continue to Signature</tspan>
                        </text>
                    </g>
                </g>
                <g id="Logo" transform="translate(94.000000, 16.000000)" fill="#E8C259">
                    <g id="Symbol">
                        <path d="M2.9062,19.345 L1.8746,19.345 C1.0198,19.345 0.3266,18.6518 0.3266,17.797 L0.3266,6.9306 C0.3266,6.0758 1.0198,5.3826 1.8746,5.3826 L2.7366,5.3826 C3.5914,5.3826 4.2846,6.0758 4.2846,6.9306 L4.2846,17.9666 C4.2846,18.7278 3.6674,19.345 2.9062,19.345" id="Fill-2"></path>
                        <path d="M24.6442,24.7274 L23.6126,24.7274 C22.7578,24.7274 22.0646,24.0342 22.0646,23.1794 L22.0646,1.5482 C22.0646,0.6934 22.7578,0.0002 23.6126,0.0002 L24.4746,0.0002 C25.3294,0.0002 26.0226,0.6934 26.0226,1.5482 L26.0226,23.349 C26.0226,24.1102 25.4054,24.7274 24.6442,24.7274" id="Fill-4"></path>
                        <path d="M10.1522,24.7274 L9.1206,24.7274 C8.2658,24.7274 7.5726,24.0342 7.5726,23.1794 L7.5726,1.5482 C7.5726,0.6934 8.2658,0.0002 9.1206,0.0002 L9.9826,0.0002 C10.8374,0.0002 11.5306,0.6934 11.5306,1.5482 L11.5306,23.349 C11.5306,24.1102 10.9134,24.7274 10.1522,24.7274" id="Fill-6"></path>
                        <path d="M31.8902,19.345 L30.8586,19.345 C30.0038,19.345 29.3106,18.6518 29.3106,17.797 L29.3106,6.9306 C29.3106,6.0758 30.0038,5.3826 30.8586,5.3826 L31.7206,5.3826 C32.5754,5.3826 33.2686,6.0758 33.2686,6.9306 L33.2686,17.9666 C33.2686,18.7278 32.6514,19.345 31.8902,19.345" id="Fill-8"></path>
                        <path d="M17.3982,19.78288 L16.3666,19.78288 C15.5118,19.78288 14.8186,19.08968 14.8186,18.23488 L14.8186,7.67688 C14.8186,6.82168 15.5118,6.12888 16.3666,6.12888 L17.2286,6.12888 C18.0834,6.12888 18.7766,6.82168 18.7766,7.67688 L18.7766,18.40448 C18.7766,19.16568 18.1594,19.78288 17.3982,19.78288" id="Fill-10"></path>
                    </g>
                    <path d="M42.1264,17.6 L42.1264,16.5024 L45.7328,10.9584 L42.16,10.9584 L42.16,9.76 L47.3904,9.76 L47.3904,10.8576 L43.7616,16.4016 L47.4128,16.4016 L47.4128,17.6 L42.1264,17.6 Z M52.2008,17.6 L52.2008,9.76 L57.3192,9.76 L57.3192,10.9136 L53.6344,10.9136 L53.6344,13.064 L56.9832,13.064 L56.9832,14.184 L53.6344,14.184 L53.6344,16.4464 L57.3192,16.4464 L57.3192,17.6 L52.2008,17.6 Z M62.1744,17.6 L62.1744,9.76 L63.8768,9.76 L66.3744,14.7328 L68.8384,9.76 L70.5408,9.76 L70.5408,17.6 L69.1072,17.6 L69.1072,12.1904 L66.9232,16.48 L65.792,16.48 L63.608,12.1904 L63.608,17.6 L62.1744,17.6 Z M75.564,17.6 L75.564,9.76 L78.4424,9.76 C79.0696031,9.76 79.5866646,9.86639894 79.9936,10.0792 C80.4005354,10.2920011 80.704799,10.5794649 80.9064,10.9416 C81.108001,11.3037351 81.2088,11.7050645 81.2088,12.1456 C81.2088,12.6234691 81.0837346,13.0602647 80.8336,13.456 C80.5834654,13.8517353 80.193336,14.1391991 79.6632,14.3184 L81.2872,17.6 L79.6408,17.6 L78.1848,14.5088 L76.9976,14.5088 L76.9976,17.6 L75.564,17.6 Z M76.9976,13.456 L78.3528,13.456 C78.8306691,13.456 79.1815989,13.3402678 79.4056,13.1088 C79.6296011,12.8773322 79.7416,12.5712019 79.7416,12.1904 C79.7416,11.8170648 79.6314678,11.5184011 79.4112,11.2944 C79.1909322,11.0703989 78.8344025,10.9584 78.3416,10.9584 L76.9976,10.9584 L76.9976,13.456 Z" id="ZEMR" fill-rule="nonzero"></path>
                </g>
            </g>
        </g>
    </g>
</svg>